<?xml version="1.0" standalone="no"?>
<!DOCTYPE svg PUBLIC "-//W3C//DTD SVG 1.1//EN" "http://www.w3.org/Graphics/SVG/1.1/DTD/svg11.dtd" >
<svg xmlns="http://www.w3.org/2000/svg" xmlns:xlink="http://www.w3.org/1999/xlink" version="1.1">
<metadata></metadata>
<defs>
<font id="zilla_slab_regularregular" horiz-adv-x="1327" >
<font-face units-per-em="2048" ascent="1612" descent="-436" />
<missing-glyph horiz-adv-x="464" />
<glyph unicode="&#xfb01;" horiz-adv-x="1165" d="M106 0v117h158v678h-131v116h131v154q0 168 112.5 266.5t282.5 98.5q86 0 166.5 -25.5t137.5 -65.5l34 -213l-118 -14l-37 154q-82 45 -195 45q-109 0 -173 -58.5t-64 -183.5v-158h608v-794h158v-117h-461v117h157v678h-462v-678h206v-117h-510z" />
<glyph unicode="&#xfb02;" horiz-adv-x="1165" d="M106 0v117h158v678h-131v116h131v158q0 162 97.5 261.5t250.5 99.5q88 0 149 -14.5t111 -53.5v47h144v-1292h160v-117h-463v117h159v1118q-84 80 -229 80q-108 0 -170.5 -63.5t-62.5 -176.5v-164h243v-116h-243v-678h206v-117h-510z" />
<glyph unicode="&#xfb03;" horiz-adv-x="1773" d="M106 0v117h158v678h-131v116h131v138q0 159 104 259.5t255 100.5q101 0 182 -37.5t135 -91.5q53 73 139.5 111.5t190.5 38.5q85 0 165.5 -25.5t135.5 -65.5l35 -213l-117 -14l-39 154q-82 45 -195 45q-109 0 -173 -58.5t-64 -183.5v-158h608v-794h158v-117h-461v117h160 v678h-465v-678h207v-117h-510v117h157v678h-462v-678h206v-117h-510zM410 911h462v154q0 62 19 121q-117 108 -246 108q-102 0 -168.5 -63t-66.5 -176v-144z" />
<glyph unicode="&#xfb04;" horiz-adv-x="1771" d="M106 0v117h158v678h-131v116h131v138q0 159 104 259.5t255 100.5q96 0 180 -33t133 -86q46 66 120 103t163 37q88 0 149 -14.5t111 -53.5v47h145v-1292h158v-117h-461v117h158v1118q-84 80 -230 80q-105 0 -169 -63t-64 -177v-164h244v-116h-244v-678h207v-117h-510v117 h157v678h-460v-678h206v-117h-510zM410 911h460v158q0 65 21 133q-39 39 -108 65.5t-138 26.5q-102 0 -168.5 -63t-66.5 -176v-144z" />
<glyph horiz-adv-x="0" />
<glyph horiz-adv-x="682" />
<glyph unicode=" "  horiz-adv-x="464" />
<glyph unicode="&#x09;" horiz-adv-x="464" />
<glyph unicode="&#xa0;" horiz-adv-x="464" />
<glyph unicode="!" horiz-adv-x="491" d="M315 0v199h185v-199h-185zM317 1331h170l-30 -938h-111z" />
<glyph unicode="&#x22;" horiz-adv-x="759" d="M246 1331h145l-10 -559h-125zM614 1331h146l-10 -559h-125z" />
<glyph unicode="#" horiz-adv-x="1210" d="M156 256v117h180l63 336h-182v116h205l47 242h129l-47 -242h360l47 242h129l-47 -242h164v-116h-186l-64 -336h189v-117h-211l-49 -256h-129l49 256h-361l-49 -256h-129l49 256h-157zM465 373h360l64 336h-361z" />
<glyph unicode="$" horiz-adv-x="962" d="M197 86l34 233l123 -10l-16 -149q100 -49 205 -58v402q-36 8 -55 12t-52.5 13.5t-52.5 17t-46.5 20.5t-43.5 27t-34.5 34t-28.5 42.5t-16.5 52t-6.5 63.5q0 95 47.5 161.5t121 98t167.5 35.5v133h86v-133q167 -11 293 -96l12 -235l-121 -9l-22 172q-71 44 -162 54v-351 q38 -9 62.5 -15t64.5 -20t66 -28.5t57 -39t49 -53t30.5 -69t12.5 -88.5q0 -142 -93 -225t-249 -92v-119h-86v119q-105 6 -197.5 34.5t-148.5 65.5zM360 803q0 -75 46.5 -110.5t136.5 -57.5v332q-86 -8 -134.5 -50.5t-48.5 -113.5zM629 104q88 9 138 55.5t50 129.5 q0 81 -48.5 124t-139.5 70v-379z" />
<glyph unicode="%" horiz-adv-x="1406" d="M147 784q0 145 83 224t219 79q132 0 208 -71.5t76 -212.5t-79 -222t-222 -81q-129 0 -207 72t-78 212zM270 786q0 -184 164 -184q176 0 176 199q0 184 -166 184q-174 0 -174 -199zM283 0l471 588l356 479h154l-414 -520l-414 -547h-153zM825 264q0 146 82 224.5t219 78.5 q131 0 208 -72t77 -212t-79.5 -221.5t-221.5 -81.5q-130 0 -207.5 71.5t-77.5 212.5zM948 266q0 -184 162 -184q178 0 178 199q0 184 -166 184q-174 0 -174 -199z" />
<glyph unicode="&#x26;" horiz-adv-x="1495" d="M193 315q0 64 20.5 117.5t60.5 95.5t81.5 72.5t101.5 63.5q-78 177 -78 317q0 163 99.5 267t269.5 104q145 0 236 -76.5t91 -200.5q0 -42 -14 -81t-30 -68t-56.5 -63.5t-64 -53.5t-84 -52t-84.5 -45.5t-95 -47.5q-15 -7 -22 -11q60 -112 148.5 -215t189.5 -178 q144 139 208 352h-200v129h573v-129h-215q-41 -103 -112 -212.5t-162 -198.5q145 -82 272 -82q88 0 166 43l35 -125q-102 -57 -221 -57q-180 0 -371 122q-175 -122 -354 -122q-76 0 -145 21.5t-124 62.5t-87.5 106t-32.5 145zM340 338q0 -115 78.5 -173.5t199.5 -58.5 q115 0 226 62q-215 172 -348 416q-156 -95 -156 -246zM526 993q0 -119 62 -262q61 32 103.5 57t90.5 59t77 66t48 72.5t19 83.5q0 66 -47 115t-136 49q-102 0 -159.5 -67t-57.5 -173z" />
<glyph unicode="'" horiz-adv-x="391" d="M246 1331h145l-10 -559h-125z" />
<glyph unicode="(" horiz-adv-x="561" d="M160 553q0 491 329 917h138q-340 -434 -340 -917q0 -241 86 -480t254 -448h-142q-325 431 -325 928z" />
<glyph unicode=")" horiz-adv-x="563" d="M29 -375q340 434 340 918q0 241 -86 479.5t-254 447.5h141q326 -432 326 -927q0 -491 -330 -918h-137z" />
<glyph unicode="*" horiz-adv-x="849" d="M193 868l241 133l-241 138l59 92l223 -150l-10 250h113l-13 -250l228 150l59 -92l-242 -138l242 -133l-59 -92l-226 146l11 -240h-113l10 238l-223 -144z" />
<glyph unicode="+" horiz-adv-x="862" d="M152 520v111h307v301h108v-301h295v-111h-295v-299h-108v299h-307z" />
<glyph unicode="," horiz-adv-x="411" d="M98 -209l107 442h143l-108 -442h-142z" />
<glyph unicode="-" horiz-adv-x="712" d="M238 410v125h473v-125h-473z" />
<glyph unicode="." horiz-adv-x="432" d="M233 0v221h199v-221h-199z" />
<glyph unicode="/" horiz-adv-x="694" d="M131 0l440 1409h142l-441 -1409h-141z" />
<glyph unicode="0" horiz-adv-x="1179" d="M193 524q0 164 55 289t168.5 199.5t273.5 74.5q123 0 218 -42.5t153.5 -119t88.5 -176.5t30 -219q0 -256 -130.5 -403t-367.5 -147q-238 0 -363.5 145.5t-125.5 398.5zM352 535q0 -203 85 -312.5t249 -109.5q162 0 249 109t87 315q0 199 -83 308t-251 109 q-167 0 -251.5 -108t-84.5 -311z" />
<glyph unicode="1" horiz-adv-x="788" d="M213 0v131h250v805h-250v131h401v-936h240v-131h-641z" />
<glyph unicode="2" horiz-adv-x="1054" d="M197 117q87 58 140 94.5t122 86t110.5 83.5t89.5 76t75 76t51.5 72t35 74.5t10.5 74.5q0 96 -63.5 150t-179.5 54q-111 0 -217 -47l-33 -153l-119 14l35 225q72 42 173 66t194 24q96 0 170 -28t116 -74.5t63 -101t21 -113.5q0 -57 -23.5 -116t-50.5 -104t-88 -102.5 t-95 -87.5t-115.5 -84.5t-105.5 -70t-106 -64.5q-11 -7 -16 -10h533l18 164l125 -10l-23 -285h-831z" />
<glyph unicode="3" horiz-adv-x="1001" d="M139 0l117 41q72 -201 289 -201q78 0 134 22.5t86 63t43 86t13 99.5q0 126 -89.5 191t-297.5 71v110q92 4 160 29t103.5 63t52 80t16.5 88q0 100 -64.5 157.5t-179.5 57.5q-102 0 -196 -51l-37 -166l-119 15l35 225q65 43 158 74.5t188 31.5q166 0 269.5 -85.5 t103.5 -239.5q0 -238 -256 -316v-8q313 -53 313 -336q0 -179 -116 -285t-316 -106q-179 0 -281 79.5t-129 209.5z" />
<glyph unicode="4" horiz-adv-x="1103" d="M78 197l477 870h319v-870h216l-17 -127h-199v-338h-147v338h-633zM223 197h504v741h-100z" />
<glyph unicode="5" horiz-adv-x="1048" d="M233 0l117 41q30 -94 102 -147.5t179 -53.5q144 0 216.5 75.5t72.5 209.5q0 62 -15.5 110.5t-45 80.5t-66 53.5t-87 32.5t-98.5 15.5t-108 4.5q-90 0 -172 -6l-52 49v602h742l18 -283l-125 -12l-20 166h-475v-391q33 2 102 2q93 0 168.5 -9.5t151 -37.5t126.5 -73 t83 -121t32 -177q0 -198 -115 -308t-321 -110q-175 0 -279.5 79t-130.5 208z" />
<glyph unicode="6" horiz-adv-x="1087" d="M197 629q0 159 26.5 286.5t82.5 227.5t151.5 154.5t226.5 54.5q125 0 215.5 -44t165.5 -137l-88 -90q-54 68 -131 105t-164 37q-94 0 -157.5 -37.5t-100.5 -114.5t-52.5 -179.5t-17.5 -248.5q-2 -4 -2 -43q35 96 124 160.5t237 64.5q98 0 172 -32t117 -89t64 -128 t21 -156q0 -93 -25 -171t-75.5 -139t-135 -95.5t-194.5 -34.5q-104 0 -184 32t-132 88.5t-84.5 139.5t-46 177.5t-13.5 211.5zM362 410q20 -142 89 -218.5t211 -76.5q274 0 274 299q0 139 -62.5 210.5t-197.5 71.5q-80 0 -141 -26.5t-96.5 -70.5t-54 -91t-22.5 -98z" />
<glyph unicode="7" horiz-adv-x="964" d="M139 711v356h842l20 -86l-505 -1247h-150l496 1204h-568v-227h-135z" />
<glyph unicode="8" horiz-adv-x="1101" d="M184 328q0 72 24.5 129t72.5 99t96 69t119 57q-62 30 -106.5 59t-86 69t-63 90.5t-21.5 111.5q0 149 118 244.5t304 95.5q183 0 302.5 -91t119.5 -241q0 -62 -22.5 -112t-65.5 -87t-87.5 -62.5t-107.5 -51.5q73 -34 123.5 -64.5t101 -75.5t76 -103.5t25.5 -129.5 q0 -161 -133 -257.5t-340 -96.5q-203 0 -326 90.5t-123 257.5zM334 348q0 -115 83 -178.5t220 -63.5q135 0 223 59.5t88 162.5q0 44 -20 83t-43 64t-76.5 56.5t-83 46t-99.5 45.5q-15 7 -22 10q-66 -29 -107.5 -52t-82.5 -56.5t-60.5 -77t-19.5 -99.5zM377 1028 q0 -48 21.5 -88t67.5 -74t87.5 -56t112.5 -54q128 57 186.5 111.5t58.5 142.5q0 105 -76.5 160t-193.5 55q-116 0 -190 -53t-74 -144z" />
<glyph unicode="9" horiz-adv-x="1087" d="M197 647q0 93 25.5 171t76 139t134.5 95.5t194 34.5q104 0 184 -32t132 -88.5t84.5 -139.5t46 -177.5t13.5 -211.5q0 -159 -26.5 -286.5t-82.5 -227.5t-151.5 -154.5t-226.5 -54.5q-125 0 -215.5 44t-165.5 137l88 90q54 -68 131 -105t164 -37q94 0 157.5 37.5 t100.5 114.5t52.5 179.5t17.5 248.5q2 4 2 43q-35 -96 -124 -160.5t-237 -64.5q-98 0 -172 32t-117 89t-64 128t-21 156zM348 653q0 -139 62.5 -210.5t197.5 -71.5q80 0 141 26.5t96.5 70.5t54 91t22.5 98q-20 142 -88.5 218.5t-210.5 76.5q-275 0 -275 -299z" />
<glyph unicode=":" horiz-adv-x="458" d="M266 0v221h193v-221h-193zM266 690v221h193v-221h-193z" />
<glyph unicode=";" horiz-adv-x="479" d="M131 -209l109 442h141l-109 -442h-141zM227 690v221h193v-221h-193z" />
<glyph unicode="&#x3c;" horiz-adv-x="833" d="M123 551v41l651 532v-141l-493 -410l495 -403v-141z" />
<glyph unicode="=" horiz-adv-x="1183" d="M250 295v106h936v-106h-936zM250 745v111h936v-111h-936z" />
<glyph unicode="&#x3e;" horiz-adv-x="833" d="M238 29v141l495 403l-493 410v141l651 -532v-41z" />
<glyph unicode="?" horiz-adv-x="913" d="M197 952l16 246q65 66 162.5 110t197.5 44q161 0 269 -75.5t108 -201.5q0 -56 -23 -106t-60 -87t-81.5 -70.5t-89 -63t-81.5 -58.5t-60 -63t-23 -70q0 -40 28 -62t81 -22v-102q-132 -7 -197 41.5t-65 132.5q0 50 22.5 94t59 76.5t80.5 63.5t88 60.5t80.5 60.5t59 70.5 t22.5 84.5q0 72 -59.5 118t-168.5 46q-125 0 -221 -80l-27 -197zM440 0v199h183v-199h-183z" />
<glyph unicode="@" horiz-adv-x="1855" d="M164 449q0 146 40.5 281t117.5 245t182 192t239.5 127t284.5 45q114 0 224.5 -24.5t219 -83.5t190.5 -146t132.5 -223.5t50.5 -304.5q0 -68 -8.5 -134t-26 -132t-48 -121t-71 -98t-99 -67.5t-128.5 -24.5q-105 0 -172.5 53.5t-85.5 144.5q-46 -85 -127 -141.5t-186 -56.5 q-40 0 -78 7.5t-75.5 26.5t-66 47.5t-46 73.5t-17.5 101q0 274 430 274q13 0 160 -6v86q0 111 -45 170t-149 59q-113 0 -203 -57l-39 -158l-109 12l37 213q72 50 148.5 75.5t185.5 25.5q157 0 238.5 -79.5t81.5 -225.5v-396q0 -67 40.5 -107t108.5 -40q51 0 91 26.5t65 69 t41.5 101t23 116.5t6.5 121q0 159 -41.5 284.5t-108.5 204t-158.5 130t-185 72t-194.5 20.5q-218 0 -388 -96.5t-264.5 -271.5t-94.5 -400q0 -179 62 -325.5t166.5 -240t239 -144t283.5 -50.5q120 0 237.5 32.5t207.5 94.5l49 -92q-104 -69 -236.5 -108.5t-275.5 -39.5 q-177 0 -334.5 64t-272.5 176.5t-182 274t-67 348.5zM764 252q0 -81 50.5 -120.5t121.5 -39.5q101 0 182 74.5t82 187.5v64q-122 10 -164 10q-272 0 -272 -176z" />
<glyph unicode="A" d="M4 0v131h125l436 1069h-213v131h379l477 -1200h135v-131h-473v131h179l-97 256h-569l-102 -256h192v-131h-469zM428 504h481l-229 610h-12z" />
<glyph unicode="B" horiz-adv-x="1236" d="M172 0v131h168v1069h-168v131h612q198 0 300 -85t102 -234q0 -107 -63.5 -186t-166.5 -101v-8q140 -22 212.5 -114.5t72.5 -225.5q0 -165 -116.5 -271t-329.5 -106h-623zM489 131h279q148 0 230.5 62.5t82.5 191.5q0 114 -67.5 178t-196.5 64h-328v-496zM489 750h265 q122 0 197 59.5t75 167.5q0 121 -67 172t-199 51h-271v-450z" />
<glyph unicode="C" horiz-adv-x="1323" d="M164 657q0 110 28.5 213.5t83.5 190.5t130.5 152.5t176.5 102t214 36.5q286 0 471 -156l37 -256l-129 -12l-37 194q-71 47 -147.5 71t-182.5 24q-217 0 -352 -154.5t-135 -398.5q0 -249 139 -399t375 -150q174 0 292 59l39 197l127 -13l-34 -256q-158 -122 -445 -122 q-190 0 -339 88.5t-230.5 242.5t-81.5 346z" />
<glyph unicode="D" horiz-adv-x="1443" d="M172 0v129h168v1073h-168v129h596q212 0 367.5 -86t234 -234.5t78.5 -342.5q0 -298 -182 -483t-492 -185h-602zM489 129h277q250 0 386 143t136 394q0 246 -136.5 391t-385.5 145h-277v-1073z" />
<glyph unicode="E" horiz-adv-x="1204" d="M172 0v131h168v1069h-168v131h973l41 -377l-131 -14l-41 260h-525v-459h629v-131h-629v-479h543l41 260l129 -14l-39 -377h-991z" />
<glyph unicode="F" horiz-adv-x="1142" d="M172 0v131h168v1069h-168v131h967l43 -383l-135 -14l-41 266h-517v-518h613v-131h-613v-420h236v-131h-553z" />
<glyph unicode="G" horiz-adv-x="1415" d="M164 659q0 142 48 269.5t132.5 221t206 148t262.5 54.5q153 0 274.5 -42.5t200.5 -113.5l37 -250l-127 -14l-41 188q-146 97 -336 97q-223 0 -360 -153.5t-137 -397.5q0 -248 131.5 -399.5t349.5 -151.5q88 0 161.5 27t121 72t74 102t26.5 118v119h-318v133h572v-133 h-105v-553h-114l-19 184q-63 -92 -173.5 -148t-252.5 -56q-134 0 -249.5 52.5t-195 143.5t-124.5 216t-45 267z" />
<glyph unicode="H" horiz-adv-x="1546" d="M172 0v131h168v1069h-168v131h485v-131h-168v-459h740v459h-168v131h485v-131h-168v-1069h168v-131h-485v131h168v483h-740v-483h168v-131h-485z" />
<glyph unicode="I" horiz-adv-x="659" d="M172 0v131h168v1069h-168v131h485v-131h-165v-1069h165v-131h-485z" />
<glyph unicode="J" horiz-adv-x="933" d="M70 182l108 82q41 -80 90.5 -111.5t120.5 -31.5q205 0 205 219v860h-264v131h561v-131h-148v-860q0 -179 -89 -269.5t-253 -90.5q-236 0 -331 202z" />
<glyph unicode="K" horiz-adv-x="1314" d="M172 0v131h168v1069h-168v131h475v-131h-155v-459h217l342 461h-158v131h469v-131h-152l-383 -510l410 -561h149v-131h-479v131h158l-352 481h-221v-481h153v-131h-473z" />
<glyph unicode="L" horiz-adv-x="1116" d="M172 0v131h168v1069h-168v131h541v-131h-224v-1069h510l41 305l134 -10l-41 -426h-961z" />
<glyph unicode="M" horiz-adv-x="1806" d="M164 1200v131h305l518 -1042h8l504 1042h307v-131h-174v-1069h166v-131h-473v131h156v848h-8l-447 -911h-80l-457 917h-8v-854h160v-131h-471v131h168v1069h-174z" />
<glyph unicode="N" horiz-adv-x="1511" d="M156 1200v131h286l758 -1026h8v895h-200v131h510v-131h-166v-1200h-97l-772 1049h-8v-918h211v-131h-508v131h154v1069h-176z" />
<glyph unicode="O" horiz-adv-x="1492" d="M160 666q0 190 83.5 346.5t236.5 248t345 91.5q146 0 272 -54t212 -146.5t135 -218.5t49 -267q0 -188 -83.5 -344t-238 -249t-350.5 -93q-147 0 -272 54.5t-209.5 147.5t-132 218t-47.5 266zM322 668q0 -113 34 -213t97.5 -176t160.5 -120t215 -44q153 0 268 73 t174.5 197t59.5 279q0 159 -61.5 284.5t-177 197t-267.5 71.5q-153 0 -269 -74t-175 -197.5t-59 -277.5z" />
<glyph unicode="P" horiz-adv-x="1175" d="M172 0v131h168v1069h-168v131h565q120 0 211 -32t145 -89t80.5 -129t26.5 -157q0 -204 -124 -316t-326 -112h-261v-365h230v-131h-547zM489 627h242q149 0 229 76.5t80 216.5q0 133 -78 206.5t-237 73.5h-236v-573z" />
<glyph unicode="Q" horiz-adv-x="1507" d="M160 666q0 190 83.5 346.5t236.5 248t345 91.5q146 0 272 -54t212 -146.5t135 -218.5t49 -267q0 -139 -48 -264t-136 -220l153 -155l-94 -95l-162 164q-163 -116 -385 -116q-147 0 -272 54.5t-209.5 147.5t-132 218t-47.5 266zM322 668q0 -113 34 -213t97.5 -176 t160.5 -120t215 -44q161 0 279 82l-248 249l96 95l250 -254q125 146 125 377q0 159 -61.5 284.5t-177 197t-267.5 71.5q-153 0 -269 -74t-175 -197.5t-59 -277.5z" />
<glyph unicode="R" horiz-adv-x="1263" d="M172 0v131h168v1069h-168v131h576q121 0 211 -28.5t143.5 -80t79.5 -118.5t26 -150q0 -133 -73.5 -232.5t-210.5 -135.5l237 -455h168v-131h-266l-287 557h-284v-426h178v-131h-498zM492 682h241q318 0 318 266q0 131 -76.5 191.5t-245.5 60.5h-237v-518z" />
<glyph unicode="S" horiz-adv-x="1091" d="M201 88l28 262l123 -12l-8 -168q118 -59 277 -59q143 0 232 60t89 187q0 57 -21 101.5t-42.5 68.5t-78.5 47.5t-80.5 29.5t-98.5 23q-7 2 -11 3q-50 10 -82 18t-79 23t-76.5 31.5t-64 43.5t-54 59t-32.5 77t-13 100q0 120 59 205.5t153 124.5t212 39q111 0 224 -31 t175 -80l12 -264l-122 -12l-21 198q-105 56 -254 56q-127 0 -202.5 -57.5t-75.5 -162.5q0 -35 9.5 -64t22.5 -49.5t38.5 -38.5t46 -29t57 -23t59.5 -17.5t64 -15.5q149 -34 203 -55q178 -69 220 -219q15 -52 15 -115q0 -186 -132.5 -289.5t-342.5 -103.5q-132 0 -246 29 t-182 79z" />
<glyph unicode="T" horiz-adv-x="1269" d="M86 926l39 405h1104l41 -405l-133 -11l-41 285h-344v-1069h235v-131h-614v131h229v1069h-344l-41 -285z" />
<glyph unicode="U" horiz-adv-x="1470" d="M147 1200v131h474v-131h-185v-672q0 -200 94 -306.5t283 -106.5q187 0 285 109.5t98 322.5v653h-190v131h460v-131h-129v-653q0 -89 -15.5 -168t-54 -153.5t-97.5 -128t-152.5 -85.5t-212.5 -32q-115 0 -205.5 29.5t-148.5 79t-96 120.5t-54 148t-16 167v676h-138z" />
<glyph unicode="V" d="M-16 1200v131h481v-131h-186l380 -979h11l372 979h-188v131h467v-131h-125l-481 -1200h-119l-481 1200h-131z" />
<glyph unicode="W" horiz-adv-x="1912" d="M0 1200v131h461v-131h-189l281 -956h8l307 956h-133v131h459v-131h-133l311 -962h8l258 962h-192v131h457v-131h-113l-356 -1200h-121l-350 1065h-9l-340 -1065h-120l-381 1200h-113z" />
<glyph unicode="X" horiz-adv-x="1294" d="M25 0v131h137l413 557l-395 512h-133v131h455v-131h-150l310 -409l294 409h-135v131h451v-131h-148l-387 -510l428 -559h127v-131h-465v131h164l-340 455l-325 -455h157v-131h-458z" />
<glyph unicode="Y" horiz-adv-x="1255" d="M-16 1200v131h485v-131h-182l336 -553h10l325 553h-184v131h467v-131h-131l-414 -692v-377h234v-131h-613v131h230v379l-432 690h-131z" />
<glyph unicode="Z" horiz-adv-x="1181" d="M131 90l787 1104v6h-574l-57 -272l-127 18l51 385h917l5 -82l-791 -1112v-6h643l57 283l129 -19l-53 -395h-983z" />
<glyph unicode="[" horiz-adv-x="577" d="M344 -436v1972h363v-106h-234v-1760h234v-106h-363z" />
<glyph unicode="\" horiz-adv-x="792" d="M377 1409h141l440 -1409h-141z" />
<glyph unicode="]" horiz-adv-x="577" d="M82 -330h233v1760h-233v106h362v-1972h-362v106z" />
<glyph unicode="^" horiz-adv-x="925" d="M168 764l330 579h92l340 -579h-135l-252 438l-240 -438h-135z" />
<glyph unicode="_" horiz-adv-x="1093" d="M213 -152h885v-104h-885v104z" />
<glyph unicode="`" horiz-adv-x="901" d="M647 1278l82 121l315 -271l-43 -63z" />
<glyph unicode="a" horiz-adv-x="989" d="M164 236q0 82 36.5 139.5t101 87t134 41.5t154.5 12q64 0 162 -8v82q0 107 -45.5 164t-161.5 57q-101 0 -176 -37l-35 -158l-119 15l33 211q131 88 321 88q160 0 243 -76.5t83 -228.5v-435q0 -98 78 -98q34 0 61 12l2 -94q-55 -30 -118 -30q-78 0 -121 49t-45 135v4 q-47 -81 -128 -134.5t-184 -53.5q-38 0 -75 7.5t-74 26.5t-64.5 47.5t-45 73.5t-17.5 101zM313 252q0 -80 50 -117t120 -37q100 0 181 68t88 176v70q-127 10 -170 10q-269 0 -269 -170z" />
<glyph unicode="b" horiz-adv-x="1093" d="M-4 1292v117h301v-686q101 207 326 207q175 0 283 -119.5t108 -331.5q0 -94 -23.5 -180.5t-70.5 -159t-127.5 -116t-184.5 -43.5q-108 0 -192.5 45t-126.5 127l-21 -152h-143q29 193 29 266v1026h-158zM297 377q0 -116 81.5 -195.5t199.5 -79.5q73 0 129 30t89 81.5 t49.5 115t16.5 136.5q0 164 -76.5 253t-197.5 89q-123 0 -204.5 -91.5t-86.5 -201.5v-137z" />
<glyph unicode="c" horiz-adv-x="946" d="M156 442q0 96 27.5 183t79 155.5t134 109t185.5 40.5q187 0 311 -94l35 -220l-119 -14l-35 154q-80 51 -194 51q-94 0 -157 -49t-89.5 -126.5t-26.5 -180.5q0 -165 72.5 -257t206.5 -92q203 0 245 232l123 -27q-10 -64 -36 -119.5t-70.5 -103.5t-116 -76t-162.5 -28 q-191 0 -302 122t-111 340z" />
<glyph unicode="d" horiz-adv-x="1124" d="M156 432q0 76 14 146t45.5 134.5t78 112.5t117 76.5t156.5 28.5q100 0 180.5 -43.5t124.5 -122.5v528h-221v117h365v-1292h158v-117h-302v184q-110 -204 -325 -204q-179 0 -285 120t-106 332zM307 442q0 -162 77 -251t200 -89q78 0 145 47t103.5 115.5t39.5 138.5v146 q-4 112 -83 185t-189 73q-74 0 -131 -29.5t-92 -81t-52.5 -116t-17.5 -138.5z" />
<glyph unicode="e" horiz-adv-x="962" d="M156 442q0 216 113 352t304 136q121 0 210 -56t133 -145t45 -199q0 -48 -13 -108h-641q6 -153 80.5 -236.5t208.5 -83.5q104 0 166.5 49.5t85.5 137.5l121 -27q-20 -123 -120.5 -202.5t-262.5 -79.5q-197 0 -313.5 122t-116.5 340zM309 528h500q2 17 2 33q1 52 -17 100 q-22 63 -81 106.5t-144 43.5q-118 0 -181.5 -78t-78.5 -205z" />
<glyph unicode="f" horiz-adv-x="653" d="M106 0v117h158v680h-131v114h131v170q0 156 93 252.5t229 96.5q68 0 117 -14t94 -52l34 -211l-116 -14l-39 155q-44 17 -105 17q-77 0 -119 -56t-42 -161v-183h235v-114h-235v-680h206v-117h-510z" />
<glyph unicode="g" horiz-adv-x="1122" d="M156 432q0 75 15 145.5t47 135t79 112.5t115.5 76.5t150.5 28.5q103 0 184 -42t125 -120v143h293v-116h-147v-783q0 -217 -118.5 -343t-330.5 -126q-149 0 -260.5 69t-146.5 200l114 57q33 -101 116 -152t183 -51q134 0 215.5 92.5t81.5 259.5v168q-103 -198 -325 -198 q-169 0 -280 118t-111 326zM311 442q0 -161 74.5 -246t192.5 -85q125 0 208 86.5t86 195.5v158q0 113 -77.5 184.5t-192.5 71.5q-98 0 -165.5 -52t-96.5 -132t-29 -181z" />
<glyph unicode="h" horiz-adv-x="1146" d="M70 0v117h157v1175h-157v117h303v-661q47 86 129 134t190 48q142 0 228 -86t86 -260v-467h157v-117h-463v117h160v424q0 268 -215 268q-115 0 -191 -78.5t-81 -183.5v-430h157v-117h-460z" />
<glyph unicode="i" horiz-adv-x="573" d="M131 795v116h307v-794h160v-117h-463v117h160v678h-164zM281 1147v186h155v-186h-155z" />
<glyph unicode="j" horiz-adv-x="516" d="M-66 -348q40 0 70 4.5t66 23.5t59 52t39 94.5t16 146.5v822h-202v116h348v-938q0 -127 -29 -216.5t-83 -137.5t-122 -67q-50 -13 -110 -13q-23 0 -47 2zM174 1147v186h156v-186h-156z" />
<glyph unicode="k" horiz-adv-x="1064" d="M61 1292v117h308v-872h163l209 258h-141v116h426v-116h-139l-244 -301l301 -377h129v-117h-430v117h137l-250 309h-161v-309h131v-117h-434v117h157v1175h-162z" />
<glyph unicode="l" horiz-adv-x="544" d="M78 1292v117h305v-1292h160v-117h-463v117h160v1175h-162z" />
<glyph unicode="m" horiz-adv-x="1767" d="M119 795v116h305v-170q47 88 124 138.5t181 50.5q110 0 187.5 -54.5t105.5 -164.5q43 100 125 159.5t196 59.5q138 0 222 -86t84 -260v-467h159v-117h-436v117h133v424q0 268 -207 268q-79 0 -140.5 -45.5t-90.5 -106.5t-31 -122v-418h158v-117h-434v117h131v424 q0 268 -203 268q-61 0 -112 -25.5t-83 -66t-49.5 -87t-19.5 -91.5v-422h168v-117h-471v117h160v678h-162z" />
<glyph unicode="n" horiz-adv-x="1173" d="M115 795v116h307v-161q46 86 128.5 133t190.5 47q141 0 227.5 -86t86.5 -260v-467h157v-117h-460v117h157v424q0 268 -211 268q-119 0 -195 -78.5t-81 -187.5v-426h160v-117h-463v117h160v678h-164z" />
<glyph unicode="o" horiz-adv-x="1050" d="M152 449q0 136 50 243.5t153.5 173.5t246.5 66q87 0 160.5 -24.5t126 -68.5t89.5 -103.5t55 -130t18 -148.5q0 -210 -124.5 -343.5t-332.5 -133.5q-204 0 -323 130t-119 339zM301 457q0 -156 78 -255.5t219 -99.5q142 0 221.5 99t79.5 258t-80 254.5t-221 95.5 q-139 0 -218 -98t-79 -254z" />
<glyph unicode="p" horiz-adv-x="1126" d="M49 795v116h307v-190q46 93 126.5 151t197.5 58q177 0 285 -120t108 -329q0 -95 -24 -181.5t-72 -159.5t-130.5 -116.5t-189.5 -43.5q-98 0 -177 39.5t-124 113.5v-452h211v-117h-516v117h162v1114h-164zM356 373q0 -115 79 -193t194 -78q145 0 219 104.5t74 262.5 q0 160 -77.5 249t-201.5 89q-117 0 -199.5 -94t-87.5 -205v-135z" />
<glyph unicode="q" horiz-adv-x="1093" d="M156 430q0 74 14 144t45.5 135.5t77.5 114t115 77.5t153 29q109 0 195.5 -46t128.5 -130q7 87 20 157h144q-31 -162 -31 -282v-948h139v-117h-498v117h213v505q-102 -206 -325 -206q-174 0 -282.5 119.5t-108.5 330.5zM307 444q0 -164 77 -253t198 -89q82 0 149.5 47 t103 115.5t37.5 138.5v138q0 114 -81.5 190t-198.5 76q-73 0 -129 -30t-89.5 -81.5t-50 -115t-16.5 -136.5z" />
<glyph unicode="r" horiz-adv-x="860" d="M115 795v116h299v-163q27 79 88 129.5t137 50.5q99 0 156 -47l34 -230l-116 -14l-35 156q-34 12 -70 12q-80 0 -133 -67.5t-53 -172.5v-448h211v-117h-514v117h160v678h-164z" />
<glyph unicode="s" horiz-adv-x="897" d="M168 70l29 206l114 -12l-6 -121q92 -45 203 -45q103 0 174.5 40t71.5 114q0 50 -31.5 82.5t-82 47.5t-111.5 26t-122 26t-111.5 38.5t-82 72.5t-31.5 121q0 69 29 122t78.5 83t107.5 44.5t123 14.5q176 0 318 -84l22 -213l-119 -15l-22 148q-85 45 -187 45 q-90 0 -143 -33.5t-53 -101.5q0 -48 31 -78.5t81 -44.5t110 -24.5t120.5 -26t110.5 -40t81 -75t31 -123.5q0 -130 -109 -207t-278 -77q-95 0 -190.5 25.5t-155.5 64.5z" />
<glyph unicode="t" horiz-adv-x="759" d="M61 797v114h148v293h143v-293h357v-114h-357v-510q0 -183 154 -183q62 0 104.5 38t61.5 139l108 -35q-38 -266 -288 -266q-135 0 -209 76.5t-74 211.5v529h-148z" />
<glyph unicode="u" horiz-adv-x="1148" d="M37 795v116h303v-542q0 -267 219 -267q112 0 189.5 85.5t80.5 189.5v418h-190v116h334v-794h164v-117h-308v172q-44 -88 -127 -140t-190 -52q-142 0 -228.5 86.5t-86.5 261.5v467h-160z" />
<glyph unicode="v" horiz-adv-x="1042" d="M29 795v116h420v-116h-158l254 -600h12l227 600h-145v116h399v-116h-110l-334 -795h-111l-348 795h-106z" />
<glyph unicode="w" horiz-adv-x="1568" d="M37 795v116h430v-116h-174l190 -576h11l270 692h96l285 -692h10l168 576h-166v116h410v-116h-105l-268 -795h-111l-278 696h-10l-273 -696h-106l-279 795h-100z" />
<glyph unicode="x" horiz-adv-x="1052" d="M78 0v117h125l286 338l-288 340h-123v116h416v-116h-123l204 -258l211 258h-108v116h364v-116h-106l-285 -332l293 -346h115v-117h-402v117h119l-213 262l-215 -262h109v-117h-379z" />
<glyph unicode="y" horiz-adv-x="1046" d="M33 795v116h422v-116h-160l256 -613h12l228 613h-148v116h401v-116h-108l-322 -795l-122 -319h155v-117h-463v117h170l119 321l-332 793h-108z" />
<glyph unicode="z" horiz-adv-x="950" d="M147 88l574 707h-430l-27 -183l-114 15l24 284h733l6 -86l-577 -708h469l47 184l117 -18l-49 -283h-766z" />
<glyph unicode="{" horiz-adv-x="573" d="M123 506v82h39q28 0 58 5t64 17.5t56 39t22 63.5q0 40 -27 115t-60 147.5t-60 163.5t-27 159q0 112 65.5 175t186.5 63h131v-106h-131q-129 0 -129 -132q0 -61 27.5 -148.5t60.5 -160t60.5 -149.5t27.5 -121q0 -62 -48 -109t-152 -63q103 -18 151.5 -64t48.5 -108 q0 -55 -44 -161t-88 -220.5t-44 -190.5q0 -131 129 -131h131v-106h-131q-123 0 -187.5 64t-64.5 173q0 69 27 158.5t60 160t60 144t27 113.5q0 37 -21.5 64t-55.5 39.5t-64.5 18t-58.5 5.5h-39z" />
<glyph unicode="|" horiz-adv-x="477" d="M348 -164v1659h129v-1659h-129z" />
<glyph unicode="}" horiz-adv-x="573" d="M127 -328h131q129 0 129 131q0 61 -27.5 148.5t-60.5 160t-60.5 150t-27.5 121.5q0 62 48.5 109t152.5 63q-103 18 -152 64t-49 108q0 45 27.5 121t60.5 147t60.5 157t27.5 146q0 132 -129 132h-131v106h131q123 0 187.5 -64.5t64.5 -173.5q0 -68 -27 -157.5t-60 -160 t-60 -144t-27 -113.5q0 -37 22 -64t56 -39.5t64.5 -18t58.5 -5.5h38v-82h-38q-28 0 -58 -5t-64.5 -17.5t-56.5 -39t-22 -63.5q0 -40 27 -115t60 -147.5t60 -163.5t27 -160q0 -112 -65 -174.5t-187 -62.5h-131v106z" />
<glyph unicode="~" horiz-adv-x="1251" d="M193 479q114 209 296 209q59 0 121.5 -22.5t108.5 -50t109 -50t122 -22.5q65 0 113 33.5t100 123.5l94 -61q-64 -118 -138.5 -173.5t-168.5 -55.5q-64 0 -129 22.5t-111.5 50t-108.5 50t-120 22.5q-57 0 -104.5 -27t-97.5 -104z" />
<glyph unicode="&#xa1;" horiz-adv-x="456" d="M262 715v198h184v-198h-184zM274 -430l31 938h111l28 -938h-170z" />
<glyph unicode="&#xa2;" horiz-adv-x="972" d="M164 442q0 122 41 225.5t129 175t209 83.5v157h94v-155q152 -9 264 -92l35 -220l-119 -14l-35 152q-64 40 -145 49v-697q163 20 205 228l121 -27q-19 -124 -100 -215.5t-226 -107.5v-156h-94v154q-176 11 -277.5 132t-101.5 328zM319 451q0 -150 57 -237.5t167 -104.5 v692q-116 -18 -170 -112t-54 -238z" />
<glyph unicode="&#xa3;" horiz-adv-x="1042" d="M176 0v111q89 42 119.5 125.5t30.5 244.5h-140v94h140v109q0 103 27.5 182t75 125t105.5 69t125 23q101 0 165.5 -19.5t125.5 -59.5l35 -240l-121 -14l-37 182q-61 35 -149 35q-209 0 -209 -281v-111h367v-94h-367q0 -146 -26.5 -231.5t-104.5 -134.5h389q84 0 136 33 t93 90l74 -68q-12 -24 -33 -50.5t-54.5 -55t-82 -46.5t-102.5 -18h-582z" />
<glyph unicode="&#xa4;" horiz-adv-x="1052" d="M160 178l194 195q-57 79 -57 180q0 99 55 176l-192 195l61 61l193 -190q87 67 192 67q108 0 191 -67l190 190l64 -61l-193 -193q57 -83 57 -178q0 -101 -59 -182l195 -193l-64 -63l-194 192q-78 -63 -187 -63q-106 0 -190 65l-195 -194zM422 553q0 -85 54 -139t132 -54 q76 0 128 54t52 139t-52 138.5t-128 53.5q-77 0 -131.5 -53.5t-54.5 -138.5z" />
<glyph unicode="&#xa5;" horiz-adv-x="1202" d="M139 952v115h416v-115h-145l270 -422h10l260 422h-149v115h401v-115h-104l-283 -442h211v-88h-268l-8 -14v-97h276v-86h-276v-110h196v-115h-530v115h190v110h-280v86h280v99l-8 12h-272v88h213l-293 442h-107z" />
<glyph unicode="&#xa6;" horiz-adv-x="466" d="M336 -164v623h131v-623h-131zM336 872v623h131v-623h-131z" />
<glyph unicode="&#xa7;" horiz-adv-x="1206" d="M160 709q0 131 164 198q-70 63 -70 162q0 133 111 208t286 75q225 0 402 -82l16 -260l-119 -13l-22 191q-125 55 -269 55q-118 0 -189 -41t-71 -123q0 -44 21 -75.5t63.5 -52t87.5 -32.5t113 -24q207 -34 249 -44q207 -48 260 -144q21 -38 21 -86q0 -133 -151 -207 q47 -50 47 -133q0 -141 -111.5 -221t-302.5 -80q-118 0 -243.5 31t-210.5 85l24 226l119 -13l-8 -155q134 -64 321 -64q115 0 191 44t76 136q0 33 -9.5 57.5t-33.5 43t-46.5 30t-69 22.5t-79 16.5t-96.5 15.5q-54 7 -95.5 13t-93 17t-89.5 24t-76 32.5t-62.5 42.5t-39.5 55 t-15 70zM297 725q0 -36 20 -60.5t81.5 -43.5t106.5 -28.5t162 -28.5q11 -2 17 -3q201 -30 293 -72q98 40 98 111q0 22 -8.5 40.5t-26 33t-37 26.5t-50.5 22.5t-56.5 17.5t-65 14.5t-66 12t-69 11t-65.5 10.5q-140 22 -223 60q-51 -19 -81 -51t-30 -72z" />
<glyph unicode="&#xa8;" horiz-adv-x="808" d="M254 1137v174h166v-174h-166zM604 1137v174h166v-174h-166z" />
<glyph unicode="&#xa9;" horiz-adv-x="1277" d="M180 532q0 113 43 214.5t116.5 175.5t175.5 117.5t216 43.5q113 0 214.5 -43.5t174.5 -117.5t115.5 -175.5t42.5 -214.5q0 -150 -73.5 -275.5t-200 -198t-275.5 -72.5t-275.5 72t-200 197.5t-73.5 276.5zM268 532q0 -195 131.5 -328.5t329.5 -133.5q195 0 328 134.5 t133 327.5q0 196 -129.5 330.5t-329.5 134.5q-201 0 -332 -134.5t-131 -330.5zM403 535q0 151 91.5 252.5t232.5 101.5q155 0 246 -78l18 -133l-73 -8l-19 102q-37 25 -71.5 35t-90.5 10q-112 0 -176.5 -76.5t-64.5 -203.5q0 -129 67 -203t187 -74q90 0 143 27l20 104l74 -8 l-18 -133q-82 -64 -232 -64q-148 0 -241 97.5t-93 251.5z" />
<glyph unicode="&#xaa;" horiz-adv-x="772" d="M180 983q0 180 283 180q16 0 115 -6v49q0 150 -125 150q-53 0 -117 -31l-27 -106l-88 8l21 143q92 66 225 66q114 0 171.5 -51.5t57.5 -149.5v-279q0 -32 11 -46.5t36 -14.5q22 0 37 6l2 -63q-41 -23 -88 -23q-56 0 -85 32.5t-31 92.5q-32 -55 -85 -90t-122 -35 q-26 0 -52 5.5t-51.5 18t-44.5 31t-31 48t-12 65.5zM307 997q0 -50 31 -74t76 -24q63 0 111.5 43.5t52.5 114.5v39q-66 8 -109 8q-162 0 -162 -107z" />
<glyph unicode="&#xab;" horiz-adv-x="923" d="M168 555l283 492h122l-264 -492l264 -504h-122zM504 555l282 492h125l-264 -492l264 -504h-125z" />
<glyph unicode="&#xac;" horiz-adv-x="1239" d="M254 524v107h985v-428h-106v321h-879z" />
<glyph unicode="&#xad;" horiz-adv-x="712" d="M238 410v125h473v-125h-473z" />
<glyph unicode="&#xae;" horiz-adv-x="1210" d="M188 838q0 140 68 258.5t186.5 187t259.5 68.5t259 -68.5t185.5 -187t67.5 -258.5t-68.5 -258t-187 -186t-258.5 -68t-257.5 67.5t-186 185.5t-68.5 259zM274 838q0 -180 122 -304t306 -124q181 0 302.5 124.5t121.5 303.5q0 181 -120 305.5t-304 124.5 q-185 0 -306.5 -124.5t-121.5 -305.5zM457 567v64h73v450h-73v64h264q106 0 159.5 -44.5t53.5 -119.5q0 -58 -33.5 -100.5t-95.5 -61.5l104 -188h74v-64h-129l-127 238h-117v-174h78v-64h-231zM610 866h97q74 0 106.5 28.5t32.5 84.5q0 53 -33 77.5t-106 24.5h-97v-215z" />
<glyph unicode="&#xaf;" horiz-adv-x="686" d="M172 1155v117h500v-117h-500z" />
<glyph unicode="&#xb0;" horiz-adv-x="811" d="M160 1024q0 140 91.5 234t237.5 94q147 0 235.5 -93.5t88.5 -232.5q0 -140 -90 -233t-238 -93q-147 0 -236 91.5t-89 232.5zM281 1026q0 -101 57 -159t147 -58q91 0 148 57t57 158q0 103 -56.5 161t-146.5 58q-92 0 -149 -57.5t-57 -159.5z" />
<glyph unicode="&#xb1;" horiz-adv-x="923" d="M217 0v109h711v-109h-711zM217 530v111h305v301h109v-301h297v-111h-297v-299h-109v299h-305z" />
<glyph unicode="&#xb2;" horiz-adv-x="710" d="M139 934q21 17 65 54t69.5 58t65.5 56.5t63.5 60t52.5 58t44.5 60.5t26.5 58.5t11 59.5q0 53 -36 85t-110 32q-65 0 -117 -35l-26 -115l-92 10l22 156q43 37 109 56.5t135 19.5q122 0 184 -58t62 -141q0 -47 -22 -98t-51 -90.5t-78 -87.5t-80.5 -74.5t-83 -67 t-62.5 -49.5h319l21 111l96 -11l-20 -192h-557z" />
<glyph unicode="&#xb3;" horiz-adv-x="700" d="M152 1034l86 25q14 -56 56 -92.5t116 -36.5q75 0 118 39t43 100q0 124 -213 129v78q183 9 183 131q0 50 -34 78t-95 28q-69 0 -123 -32l-23 -103l-92 11l19 141q43 37 112 56.5t135 19.5q103 0 165.5 -50t62.5 -133q0 -131 -152 -176v-4q97 -14 140.5 -65t43.5 -121 q0 -106 -83.5 -163.5t-210.5 -57.5q-105 0 -173.5 53t-80.5 145z" />
<glyph unicode="&#xb4;" horiz-adv-x="901" d="M696 1128l316 271l82 -121l-353 -213z" />
<glyph unicode="&#xb5;" horiz-adv-x="1171" d="M78 795v116h303v-557q6 -258 217 -258q113 0 189 80t81 182v437h-188v116h332v-794h164v-117h-308v172q-44 -89 -126.5 -140.5t-190.5 -51.5q-100 0 -170 40v-456h-145v1231h-158z" />
<glyph unicode="&#xb6;" horiz-adv-x="1265" d="M123 991q0 148 117.5 244t339.5 96h665v-127h-155v-1204h-138v1204h-129v-1204h-139v635h-117q-98 0 -176.5 19.5t-139.5 60.5t-94.5 111t-33.5 165z" />
<glyph unicode="&#xb7;" horiz-adv-x="448" d="M242 524v209h198v-209h-198z" />
<glyph unicode="&#xb8;" horiz-adv-x="524" d="M225 -367l35 84q61 -47 154 -47q104 0 104 84q0 47 -31.5 64.5t-87.5 17.5h-61v176h106v-108h17q91 0 136.5 -44t45.5 -116q0 -87 -62 -129.5t-159 -42.5q-124 0 -197 61z" />
<glyph unicode="&#xb9;" horiz-adv-x="532" d="M143 850v92h154v561h-154v92h273v-653h147v-92h-420z" />
<glyph unicode="&#xba;" horiz-adv-x="776" d="M156 1120q0 137 81.5 226.5t229.5 89.5q147 0 227 -88.5t80 -221.5q0 -138 -87 -224.5t-228 -86.5q-138 0 -220.5 84.5t-82.5 220.5zM283 1128q0 -97 46.5 -158t133.5 -61q86 0 135 61t49 158q0 99 -48 155t-134 56t-134 -57.5t-48 -153.5z" />
<glyph unicode="&#xbb;" horiz-adv-x="923" d="M197 51l262 504l-262 492h122l283 -492l-283 -504h-122zM532 51l265 504l-265 492h123l283 -492l-283 -504h-123z" />
<glyph unicode="&#xbc;" horiz-adv-x="1449" d="M180 586v92h154v561h-154v92h273v-653h147v-92h-420zM381 0l403 690l359 641h108l-389 -665l-373 -666h-108zM850 270l266 475h234v-473h125l-9 -90h-116v-184h-119v184h-369zM958 272h273v381h-55z" />
<glyph unicode="&#xbd;" horiz-adv-x="1527" d="M168 586v92h154v561h-154v92h272v-653h148v-92h-420zM362 0l404 690l358 641h109l-389 -665l-373 -666h-109zM977 84q18 15 74 61t81 68t71.5 64t69.5 70t50.5 65t39 71t11.5 66q0 53 -35.5 85t-109.5 32q-65 0 -117 -35l-27 -115l-92 10l23 156q43 37 109 56.5t135 19.5 q122 0 183.5 -58t61.5 -141q0 -47 -22 -98t-51 -90.5t-78 -87.5t-80.5 -74.5t-83 -67t-62.5 -49.5h320l20 111l97 -10l-21 -193h-557z" />
<glyph unicode="&#xbe;" horiz-adv-x="1503" d="M168 780l86 25q14 -56 56 -92.5t116 -36.5q75 0 118.5 39t43.5 100q0 124 -213 129v78q182 9 182 131q0 50 -34 78.5t-95 28.5q-67 0 -123 -33l-22 -103l-93 11l19 141q43 37 112.5 56.5t135.5 19.5q103 0 165 -50t62 -133q0 -131 -152 -176v-4q97 -14 141 -65t44 -121 q0 -106 -84 -163.5t-211 -57.5q-105 0 -173.5 53t-80.5 145zM432 0l404 690l358 641h109l-390 -665l-372 -666h-109zM897 270l266 475h234v-473h125l-9 -90h-116v-184h-119v184h-369zM1006 272h272v381h-55z" />
<glyph unicode="&#xbf;" horiz-adv-x="901" d="M115 -162q0 65 31 122t77 95.5t100.5 78t100.5 70.5t77 71t31 81q0 84 -108 84v103q132 7 197 -41.5t65 -132.5q0 -50 -22.5 -94t-59 -76.5t-80.5 -63.5t-88 -60.5t-80.5 -60.5t-59 -70.5t-22.5 -84.5q0 -72 59.5 -118t168.5 -46q125 0 221 80l27 196l118 -10l-16 -246 q-65 -66 -162.5 -109.5t-197.5 -43.5q-161 0 -269 75t-108 201zM442 715v198h183v-198h-183z" />
<glyph unicode="&#xc0;" d="M4 0v131h125l436 1069h-213v131h379l477 -1200h135v-131h-473v131h179l-97 256h-569l-102 -256h192v-131h-469zM338 1526l35 139l391 -149l-21 -76zM428 504h481l-229 610h-12z" />
<glyph unicode="&#xc1;" d="M4 0v131h125l436 1069h-213v131h379l477 -1200h135v-131h-473v131h179l-97 256h-569l-102 -256h192v-131h-469zM428 504h481l-229 610h-12zM563 1516l391 149l35 -139l-403 -86z" />
<glyph unicode="&#xc2;" d="M4 0v131h125l436 1069h-213v131h379l477 -1200h135v-131h-473v131h179l-97 256h-569l-102 -256h192v-131h-469zM383 1503l260 191h43l258 -185l-39 -71l-246 127l-237 -129zM428 504h481l-229 610h-12z" />
<glyph unicode="&#xc3;" d="M4 0v131h125l436 1069h-213v131h379l477 -1200h135v-131h-473v131h179l-97 256h-569l-102 -256h192v-131h-469zM350 1470q9 63 53 115.5t115 52.5q44 0 119 -35.5t125 -35.5q33 0 56.5 17t39.5 69l74 -19q-16 -89 -53 -135.5t-107 -46.5q-55 0 -135 36t-117 36 q-78 0 -102 -80zM428 504h481l-229 610h-12z" />
<glyph unicode="&#xc4;" d="M4 0v131h125l436 1069h-213v131h379l477 -1200h135v-131h-473v131h179l-97 256h-569l-102 -256h192v-131h-469zM406 1470v175h165v-175h-165zM428 504h481l-229 610h-12zM758 1470v175h164v-175h-164z" />
<glyph unicode="&#xc5;" d="M4 0v131h125l436 1069h-213v131h379l477 -1200h135v-131h-473v131h179l-97 256h-569l-102 -256h192v-131h-469zM428 504h481l-229 610h-12zM461 1602q0 86 53.5 137t149.5 51q100 0 150 -50t50 -134q0 -88 -52 -140.5t-150 -52.5t-149.5 50t-51.5 139zM561 1602 q0 -49 25 -78t76 -29q52 0 77 30.5t25 80.5q0 45 -24.5 73.5t-77.5 28.5q-50 0 -75.5 -29t-25.5 -77z" />
<glyph unicode="&#xc6;" horiz-adv-x="1882" d="M-29 0v131h135l529 1069h-199v131h1282l39 -375l-131 -16l-41 260h-520v-459h627v-131h-627v-479h539l41 260l131 -14l-39 -377h-989v131h165v256h-530l-127 -256h184v-131h-469zM438 504h475v696h-135z" />
<glyph unicode="&#xc7;" horiz-adv-x="1323" d="M160 657q0 110 28.5 213.5t83.5 190.5t130.5 152.5t176.5 102t214 36.5q286 0 471 -156l36 -256l-129 -12l-36 194q-71 47 -147.5 71t-182.5 24q-217 0 -352.5 -154.5t-135.5 -398.5q0 -249 139 -399t375 -150q175 0 293 59l39 197l127 -13l-35 -256q-151 -116 -426 -122 v-76h17q91 0 136.5 -44t45.5 -116q0 -87 -62 -129.5t-159 -42.5q-124 0 -197 61l35 84q61 -47 154 -47q104 0 104 84q0 47 -31.5 64.5t-87.5 17.5h-61v150q-168 19 -296 110.5t-197.5 237t-69.5 323.5z" />
<glyph unicode="&#xc8;" horiz-adv-x="1206" d="M172 0v131h168v1069h-168v131h973l41 -377l-131 -14l-41 260h-525v-459h629v-131h-629v-479h543l41 260l129 -14l-39 -377h-991zM473 1526l35 139l391 -149l-20 -76z" />
<glyph unicode="&#xc9;" horiz-adv-x="1206" d="M172 0v131h168v1069h-168v131h973l41 -377l-131 -14l-41 260h-525v-459h629v-131h-629v-479h543l41 260l129 -14l-39 -377h-991zM612 1516l392 149l34 -139l-403 -86z" />
<glyph unicode="&#xca;" horiz-adv-x="1206" d="M172 0v131h168v1069h-168v131h973l41 -377l-131 -14l-41 260h-525v-459h629v-131h-629v-479h543l41 260l129 -14l-39 -377h-991zM483 1503l260 191h43l258 -185l-38 -71l-246 127l-238 -129z" />
<glyph unicode="&#xcb;" horiz-adv-x="1206" d="M172 0v131h168v1069h-168v131h973l41 -377l-131 -14l-41 260h-525v-459h629v-131h-629v-479h543l41 260l129 -14l-39 -377h-991zM487 1470v175h166v-175h-166zM840 1470v175h164v-175h-164z" />
<glyph unicode="&#xcc;" horiz-adv-x="659" d="M156 1526l34 139l392 -149l-21 -76zM164 0v131h168v1069h-168v131h485v-131h-166v-1069h166v-131h-485z" />
<glyph unicode="&#xcd;" horiz-adv-x="659" d="M172 0v131h168v1069h-168v131h485v-131h-165v-1069h165v-131h-485zM240 1516l391 149l35 -139l-404 -86z" />
<glyph unicode="&#xce;" horiz-adv-x="659" d="M102 1503l260 191h44l258 -185l-39 -71l-246 127l-238 -129zM137 0v131h168v1069h-168v131h486v-131h-166v-1069h166v-131h-486z" />
<glyph unicode="&#xcf;" horiz-adv-x="659" d="M156 1470v175h166v-175h-166zM164 0v131h168v1069h-168v131h485v-131h-166v-1069h166v-131h-485zM508 1470v175h164v-175h-164z" />
<glyph unicode="&#xd0;" horiz-adv-x="1445" d="M172 0v129h168v502h-160v127h160v444h-168v129h596q212 0 367.5 -86t234 -234.5t78.5 -342.5q0 -298 -182 -483t-492 -185h-602zM489 129h277q250 0 386 143t136 394q0 246 -136.5 391t-385.5 145h-277v-444h277v-127h-277v-502z" />
<glyph unicode="&#xd1;" horiz-adv-x="1511" d="M156 1200v131h286l758 -1026h8v895h-200v131h510v-131h-166v-1200h-97l-772 1049h-8v-918h211v-131h-508v131h154v1069h-176zM532 1470q9 63 53 115.5t115 52.5q44 0 119 -35.5t125 -35.5q33 0 56.5 17t39.5 69l74 -19q-16 -89 -53 -135.5t-107 -46.5q-55 0 -135 36 t-117 36q-78 0 -102 -80z" />
<glyph unicode="&#xd2;" horiz-adv-x="1490" d="M160 666q0 190 83.5 346.5t236.5 248t345 91.5q146 0 272 -54t212 -146.5t135 -218.5t49 -267q0 -188 -83.5 -344t-238 -249t-350.5 -93q-147 0 -272 54.5t-209.5 147.5t-132 218t-47.5 266zM322 668q0 -113 34 -213t97.5 -176t160.5 -120t215 -44q153 0 268 73 t174.5 197t59.5 279q0 159 -61.5 284.5t-177 197t-267.5 71.5q-153 0 -269 -74t-175 -197.5t-59 -277.5zM541 1526l34 139l392 -149l-21 -76z" />
<glyph unicode="&#xd3;" horiz-adv-x="1490" d="M160 666q0 190 83.5 346.5t236.5 248t345 91.5q146 0 272 -54t212 -146.5t135 -218.5t49 -267q0 -188 -83.5 -344t-238 -249t-350.5 -93q-147 0 -272 54.5t-209.5 147.5t-132 218t-47.5 266zM322 668q0 -113 34 -213t97.5 -176t160.5 -120t215 -44q153 0 268 73 t174.5 197t59.5 279q0 159 -61.5 284.5t-177 197t-267.5 71.5q-153 0 -269 -74t-175 -197.5t-59 -277.5zM715 1516l391 149l35 -139l-404 -86z" />
<glyph unicode="&#xd4;" horiz-adv-x="1490" d="M160 666q0 190 83.5 346.5t236.5 248t345 91.5q146 0 272 -54t212 -146.5t135 -218.5t49 -267q0 -188 -83.5 -344t-238 -249t-350.5 -93q-147 0 -272 54.5t-209.5 147.5t-132 218t-47.5 266zM322 668q0 -113 34 -213t97.5 -176t160.5 -120t215 -44q153 0 268 73 t174.5 197t59.5 279q0 159 -61.5 284.5t-177 197t-267.5 71.5q-153 0 -269 -74t-175 -197.5t-59 -277.5zM551 1503l260 191h43l258 -185l-39 -71l-246 127l-237 -129z" />
<glyph unicode="&#xd5;" horiz-adv-x="1490" d="M160 666q0 190 83.5 346.5t236.5 248t345 91.5q146 0 272 -54t212 -146.5t135 -218.5t49 -267q0 -188 -83.5 -344t-238 -249t-350.5 -93q-147 0 -272 54.5t-209.5 147.5t-132 218t-47.5 266zM322 668q0 -113 34 -213t97.5 -176t160.5 -120t215 -44q153 0 268 73 t174.5 197t59.5 279q0 159 -61.5 284.5t-177 197t-267.5 71.5q-153 0 -269 -74t-175 -197.5t-59 -277.5zM545 1470q9 63 53 115.5t115 52.5q44 0 118.5 -35.5t124.5 -35.5q34 0 57.5 17t39.5 69l73 -19q-16 -89 -52.5 -135.5t-106.5 -46.5q-55 0 -135 36t-117 36 q-79 0 -103 -80z" />
<glyph unicode="&#xd6;" horiz-adv-x="1490" d="M160 666q0 190 83.5 346.5t236.5 248t345 91.5q146 0 272 -54t212 -146.5t135 -218.5t49 -267q0 -188 -83.5 -344t-238 -249t-350.5 -93q-147 0 -272 54.5t-209.5 147.5t-132 218t-47.5 266zM322 668q0 -113 34 -213t97.5 -176t160.5 -120t215 -44q153 0 268 73 t174.5 197t59.5 279q0 159 -61.5 284.5t-177 197t-267.5 71.5q-153 0 -269 -74t-175 -197.5t-59 -277.5zM573 1470v175h166v-175h-166zM926 1470v175h164v-175h-164z" />
<glyph unicode="&#xd7;" horiz-adv-x="794" d="M213 346l215 215l-213 215l76 78l213 -215l211 211l76 -78l-209 -209l211 -211l-76 -80l-213 213l-215 -217z" />
<glyph unicode="&#xd8;" horiz-adv-x="1505" d="M172 666q0 190 83.5 346.5t237 248t345.5 91.5q234 0 407 -133l101 112h161l-174 -194q83 -93 127.5 -214.5t44.5 -256.5q0 -188 -83 -344t-237.5 -249t-350.5 -93q-239 0 -410 135l-100 -115h-150l168 190q-170 195 -170 476zM334 668q0 -216 108 -363l709 805 q-129 107 -313 107q-153 0 -269 -74t-175.5 -198t-59.5 -277zM522 223q127 -108 320 -108q153 0 268 73t174 197t59 279q0 215 -108 360z" />
<glyph unicode="&#xd9;" horiz-adv-x="1468" d="M147 1200v131h474v-131h-185v-672q0 -200 94 -306.5t283 -106.5q187 0 285 109.5t98 322.5v653h-190v131h460v-131h-129v-653q0 -89 -15.5 -168t-54 -153.5t-97.5 -128t-152.5 -85.5t-212.5 -32q-115 0 -205.5 29.5t-148.5 79t-96 120.5t-54 148t-16 167v676h-138z M563 1526l35 139l391 -149l-20 -76z" />
<glyph unicode="&#xda;" horiz-adv-x="1468" d="M147 1200v131h474v-131h-185v-672q0 -200 94 -306.5t283 -106.5q187 0 285 109.5t98 322.5v653h-190v131h460v-131h-129v-653q0 -89 -15.5 -168t-54 -153.5t-97.5 -128t-152.5 -85.5t-212.5 -32q-115 0 -205.5 29.5t-148.5 79t-96 120.5t-54 148t-16 167v676h-138z M692 1516l391 149l35 -139l-403 -86z" />
<glyph unicode="&#xdb;" horiz-adv-x="1468" d="M147 1200v131h474v-131h-185v-672q0 -200 94 -306.5t283 -106.5q187 0 285 109.5t98 322.5v653h-190v131h460v-131h-129v-653q0 -89 -15.5 -168t-54 -153.5t-97.5 -128t-152.5 -85.5t-212.5 -32q-115 0 -205.5 29.5t-148.5 79t-96 120.5t-54 148t-16 167v676h-138z M530 1503l261 191h43l258 -185l-39 -71l-246 127l-238 -129z" />
<glyph unicode="&#xdc;" horiz-adv-x="1468" d="M147 1200v131h474v-131h-185v-672q0 -200 94 -306.5t283 -106.5q187 0 285 109.5t98 322.5v653h-190v131h460v-131h-129v-653q0 -89 -15.5 -168t-54 -153.5t-97.5 -128t-152.5 -85.5t-212.5 -32q-115 0 -205.5 29.5t-148.5 79t-96 120.5t-54 148t-16 167v676h-138z M559 1470v175h166v-175h-166zM911 1470v175h164v-175h-164z" />
<glyph unicode="&#xdd;" horiz-adv-x="1255" d="M-16 1200v131h485v-131h-182l336 -553h10l325 553h-184v131h467v-131h-131l-414 -692v-377h234v-131h-613v131h230v379l-432 690h-131zM469 1516l391 149l35 -139l-403 -86z" />
<glyph unicode="&#xde;" horiz-adv-x="1171" d="M172 0v131h168v1069h-168v131h485v-131h-165v-125h256q120 0 210 -29t144.5 -81t81 -119.5t26.5 -149.5q0 -196 -124 -303.5t-326 -107.5h-268v-154h165v-131h-485zM492 397h247q151 0 231.5 76.5t80.5 218.5q0 131 -78.5 202t-237.5 71h-243v-568z" />
<glyph unicode="&#xdf;" horiz-adv-x="1335" d="M106 0v117h158v678h-131v116h131v95q0 197 135 310.5t373 113.5q211 0 329 -82.5t118 -212.5q0 -57 -24 -102.5t-62.5 -75.5t-85 -55.5t-92.5 -48t-84.5 -46.5t-62.5 -58.5t-24 -76.5q0 -44 31 -72.5t81 -42t110.5 -24t121 -27t110.5 -42t81 -77t31 -125.5 q0 -130 -104.5 -206t-264.5 -76q-103 0 -206 24.5t-161 65.5l27 206l117 -12l-6 -114q72 -52 219 -52q99 0 165 39.5t66 112.5q0 51 -31.5 84.5t-82 49t-111.5 27t-122.5 25.5t-112 36.5t-82 68.5t-31.5 114q0 59 24.5 106t63.5 76.5t86.5 54t95 46.5t86.5 46t63.5 60 t24.5 82q0 86 -82.5 134.5t-228.5 48.5q-352 0 -352 -314v-995h-304z" />
<glyph unicode="&#xe0;" horiz-adv-x="989" d="M164 236q0 82 36.5 139.5t101 87t134 41.5t154.5 12q64 0 162 -8v82q0 107 -45.5 164t-161.5 57q-101 0 -176 -37l-35 -158l-119 15l33 211q131 88 321 88q160 0 243 -76.5t83 -228.5v-435q0 -98 78 -98q34 0 61 12l2 -94q-55 -30 -118 -30q-78 0 -121 49t-45 135v4 q-47 -81 -128 -134.5t-184 -53.5q-38 0 -75 7.5t-74 26.5t-64.5 47.5t-45 73.5t-17.5 101zM289 1278l82 121l315 -271l-43 -63zM313 252q0 -80 50 -117t120 -37q100 0 181 68t88 176v70q-127 10 -170 10q-269 0 -269 -170z" />
<glyph unicode="&#xe1;" horiz-adv-x="989" d="M164 236q0 82 36.5 139.5t101 87t134 41.5t154.5 12q64 0 162 -8v82q0 107 -45.5 164t-161.5 57q-101 0 -176 -37l-35 -158l-119 15l33 211q131 88 321 88q160 0 243 -76.5t83 -228.5v-435q0 -98 78 -98q34 0 61 12l2 -94q-55 -30 -118 -30q-78 0 -121 49t-45 135v4 q-47 -81 -128 -134.5t-184 -53.5q-38 0 -75 7.5t-74 26.5t-64.5 47.5t-45 73.5t-17.5 101zM313 252q0 -80 50 -117t120 -37q100 0 181 68t88 176v70q-127 10 -170 10q-269 0 -269 -170zM457 1128l315 271l82 -121l-352 -213z" />
<glyph unicode="&#xe2;" horiz-adv-x="989" d="M164 236q0 82 36.5 139.5t101 87t134 41.5t154.5 12q64 0 162 -8v82q0 107 -45.5 164t-161.5 57q-101 0 -176 -37l-35 -158l-119 15l33 211q131 88 321 88q160 0 243 -76.5t83 -228.5v-435q0 -98 78 -98q34 0 61 12l2 -94q-55 -30 -118 -30q-78 0 -121 49t-45 135v4 q-47 -81 -128 -134.5t-184 -53.5q-38 0 -75 7.5t-74 26.5t-64.5 47.5t-45 73.5t-17.5 101zM293 1128l248 246h45l248 -241l-56 -70l-227 172l-207 -172zM313 252q0 -80 50 -117t120 -37q100 0 181 68t88 176v70q-127 10 -170 10q-269 0 -269 -170z" />
<glyph unicode="&#xe3;" horiz-adv-x="989" d="M164 236q0 82 36.5 139.5t101 87t134 41.5t154.5 12q64 0 162 -8v82q0 107 -45.5 164t-161.5 57q-101 0 -176 -37l-35 -158l-119 15l33 211q131 88 321 88q160 0 243 -76.5t83 -228.5v-435q0 -98 78 -98q34 0 61 12l2 -94q-55 -30 -118 -30q-78 0 -121 49t-45 135v4 q-47 -81 -128 -134.5t-184 -53.5q-38 0 -75 7.5t-74 26.5t-64.5 47.5t-45 73.5t-17.5 101zM258 1149q6 40 24 79t56 70t86 31q45 0 120.5 -38t125.5 -38q69 0 96 88l74 -18q-31 -190 -158 -190q-45 0 -92 19.5t-88 39.5t-72 20q-33 0 -61.5 -21t-42.5 -67zM313 252 q0 -80 50 -117t120 -37q100 0 181 68t88 176v70q-127 10 -170 10q-269 0 -269 -170z" />
<glyph unicode="&#xe4;" horiz-adv-x="989" d="M164 236q0 82 36.5 139.5t101 87t134 41.5t154.5 12q64 0 162 -8v82q0 107 -45.5 164t-161.5 57q-101 0 -176 -37l-35 -158l-119 15l33 211q131 88 321 88q160 0 243 -76.5t83 -228.5v-435q0 -98 78 -98q34 0 61 12l2 -94q-55 -30 -118 -30q-78 0 -121 49t-45 135v4 q-47 -81 -128 -134.5t-184 -53.5q-38 0 -75 7.5t-74 26.5t-64.5 47.5t-45 73.5t-17.5 101zM303 1137v174h166v-174h-166zM313 252q0 -80 50 -117t120 -37q100 0 181 68t88 176v70q-127 10 -170 10q-269 0 -269 -170zM653 1137v174h166v-174h-166z" />
<glyph unicode="&#xe5;" horiz-adv-x="989" d="M164 236q0 82 36.5 139.5t101 87t134 41.5t154.5 12q64 0 162 -8v82q0 107 -45.5 164t-161.5 57q-101 0 -176 -37l-35 -158l-119 15l33 211q131 88 321 88q160 0 243 -76.5t83 -228.5v-435q0 -98 78 -98q34 0 61 12l2 -94q-55 -30 -118 -30q-78 0 -121 49t-45 135v4 q-47 -81 -128 -134.5t-184 -53.5q-38 0 -75 7.5t-74 26.5t-64.5 47.5t-45 73.5t-17.5 101zM313 252q0 -80 50 -117t120 -37q100 0 181 68t88 176v70q-127 10 -170 10q-269 0 -269 -170zM362 1241q0 85 54 137t149 52q100 0 150.5 -50.5t50.5 -136.5t-52.5 -138t-150.5 -52 t-149.5 49.5t-51.5 138.5zM463 1241q0 -106 100 -106q51 0 77 30.5t26 79.5q0 45 -25 74t-78 29q-50 0 -75 -30t-25 -77z" />
<glyph unicode="&#xe6;" horiz-adv-x="1554" d="M160 236q0 66 25.5 116.5t66.5 81t99 49.5t116 26t125 7q62 0 160 -8v82q0 104 -45 162.5t-154 58.5t-184 -37l-37 -158l-119 15l35 211q72 48 150 68t188 20q201 0 270 -148q119 148 311 148q181 0 284 -115t103 -285q0 -52 -12 -108h-639q6 -153 80.5 -235.5 t208.5 -82.5q203 0 250 185l121 -27q-20 -123 -120.5 -202.5t-262.5 -79.5q-129 0 -226.5 55.5t-148.5 159.5q-133 -215 -359 -215q-40 0 -78.5 7.5t-77 26.5t-67 47.5t-46 73.5t-17.5 101zM313 252q0 -80 50 -117t120 -37q101 0 182 68.5t87 177.5v68q-127 10 -166 10 q-45 0 -82 -4t-73.5 -15.5t-61.5 -30t-40.5 -49t-15.5 -71.5zM905 526h498q7 71 -15 133.5t-80.5 106t-144.5 43.5q-119 0 -182 -78t-76 -205z" />
<glyph unicode="&#xe7;" horiz-adv-x="946" d="M156 442q0 96 27.5 183t79 155.5t134 109t185.5 40.5q187 0 311 -94l35 -220l-119 -14l-35 154q-80 51 -194 51q-94 0 -157 -49t-89.5 -126.5t-26.5 -180.5q0 -165 72.5 -257t206.5 -92q203 0 245 232l123 -27q-9 -59 -32.5 -112t-63 -99.5t-102 -77t-140.5 -36.5v-80h17 q91 0 136.5 -44t45.5 -116q0 -87 -62 -129.5t-159 -42.5q-124 0 -197 61l35 84q61 -47 154 -47q104 0 104 84q0 47 -31.5 64.5t-87.5 17.5h-61v150q-166 17 -260 137t-94 321z" />
<glyph unicode="&#xe8;" horiz-adv-x="962" d="M156 442q0 216 113 352t304 136q121 0 210 -56t133 -145t45 -199q0 -48 -13 -108h-641q6 -153 80.5 -236.5t208.5 -83.5q104 0 166.5 49.5t85.5 137.5l121 -27q-20 -123 -120.5 -202.5t-262.5 -79.5q-197 0 -313.5 122t-116.5 340zM301 1278l82 121l315 -271l-43 -63z M309 528h500q7 70 -15.5 133t-81 106.5t-143.5 43.5q-118 0 -181.5 -78t-78.5 -205z" />
<glyph unicode="&#xe9;" horiz-adv-x="962" d="M156 442q0 216 113 352t304 136q121 0 210 -56t133 -145t45 -199q0 -48 -13 -108h-641q6 -153 80.5 -236.5t208.5 -83.5q104 0 166.5 49.5t85.5 137.5l121 -27q-20 -123 -120.5 -202.5t-262.5 -79.5q-197 0 -313.5 122t-116.5 340zM309 528h500q7 70 -15.5 133t-81 106.5 t-143.5 43.5q-118 0 -181.5 -78t-78.5 -205zM494 1128l315 271l82 -121l-352 -213z" />
<glyph unicode="&#xea;" horiz-adv-x="962" d="M156 442q0 216 113 352t304 136q121 0 210 -56t133 -145t45 -199q0 -48 -13 -108h-641q6 -153 80.5 -236.5t208.5 -83.5q104 0 166.5 49.5t85.5 137.5l121 -27q-20 -123 -120.5 -202.5t-262.5 -79.5q-197 0 -313.5 122t-116.5 340zM309 528h500q7 70 -15.5 133t-81 106.5 t-143.5 43.5q-118 0 -181.5 -78t-78.5 -205zM315 1128l248 246h45l248 -241l-55 -70l-228 172l-206 -172z" />
<glyph unicode="&#xeb;" horiz-adv-x="962" d="M156 442q0 216 113 352t304 136q121 0 210 -56t133 -145t45 -199q0 -48 -13 -108h-641q6 -153 80.5 -236.5t208.5 -83.5q104 0 166.5 49.5t85.5 137.5l121 -27q-20 -123 -120.5 -202.5t-262.5 -79.5q-197 0 -313.5 122t-116.5 340zM309 528h500q7 70 -15.5 133t-81 106.5 t-143.5 43.5q-118 0 -181.5 -78t-78.5 -205zM326 1137v174h166v-174h-166zM676 1137v174h166v-174h-166z" />
<glyph unicode="&#xec;" horiz-adv-x="573" d="M-33 1278l82 121l316 -271l-43 -63zM49 795v116h307v-794h160v-117h-463v117h160v678h-164z" />
<glyph unicode="&#xed;" horiz-adv-x="573" d="M131 795v116h307v-794h160v-117h-463v117h160v678h-164zM162 1128l315 271l82 -121l-352 -213z" />
<glyph unicode="&#xee;" horiz-adv-x="571" d="M4 1128l248 246h45l248 -241l-56 -70l-227 172l-207 -172zM68 795v116h307v-794h160v-117h-463v117h159v678h-163z" />
<glyph unicode="&#xef;" horiz-adv-x="573" d="M8 1137v174h166v-174h-166zM70 795v116h307v-794h160v-117h-463v117h159v678h-163zM358 1137v174h166v-174h-166z" />
<glyph unicode="&#xf0;" horiz-adv-x="1073" d="M152 449q0 209 119.5 345t312.5 136q150 0 260 -99q-71 187 -250 330l-115 -141l-82 57l119 144q-72 49 -166 102l60 107q118 -66 184 -113l98 119l80 -56l-100 -123q377 -304 377 -731v-69q0 -212 -123.5 -344.5t-331.5 -132.5q-204 0 -323 130t-119 339zM305 457 q0 -155 76.5 -254t218.5 -99q139 0 217 96.5t78 250.5v88q-5 95 -89.5 180.5t-213.5 85.5q-135 0 -211 -96t-76 -252z" />
<glyph unicode="&#xf1;" horiz-adv-x="1173" d="M115 795v116h307v-161q46 86 128.5 133t190.5 47q141 0 227.5 -86t86.5 -260v-467h157v-117h-460v117h157v424q0 268 -211 268q-119 0 -195 -78.5t-81 -187.5v-426h160v-117h-463v117h160v678h-164zM365 1149q9 66 52 123t113 57q45 0 120.5 -38t125.5 -38q69 0 96 88 l74 -18q-31 -190 -158 -190q-45 0 -91.5 19.5t-87.5 39.5t-72 20q-33 0 -62 -21t-43 -67z" />
<glyph unicode="&#xf2;" horiz-adv-x="1050" d="M152 449q0 136 50 243.5t153.5 173.5t246.5 66q87 0 160.5 -24.5t126 -68.5t89.5 -103.5t55 -130t18 -148.5q0 -210 -124.5 -343.5t-332.5 -133.5q-204 0 -323 130t-119 339zM301 457q0 -156 78 -255.5t219 -99.5q142 0 221.5 99t79.5 258t-80 254.5t-221 95.5 q-139 0 -218 -98t-79 -254zM328 1278l82 121l315 -271l-43 -63z" />
<glyph unicode="&#xf3;" horiz-adv-x="1050" d="M152 449q0 136 50 243.5t153.5 173.5t246.5 66q87 0 160.5 -24.5t126 -68.5t89.5 -103.5t55 -130t18 -148.5q0 -210 -124.5 -343.5t-332.5 -133.5q-204 0 -323 130t-119 339zM301 457q0 -156 78 -255.5t219 -99.5q142 0 221.5 99t79.5 258t-80 254.5t-221 95.5 q-139 0 -218 -98t-79 -254zM520 1128l316 271l82 -121l-353 -213z" />
<glyph unicode="&#xf4;" horiz-adv-x="1050" d="M152 449q0 136 50 243.5t153.5 173.5t246.5 66q87 0 160.5 -24.5t126 -68.5t89.5 -103.5t55 -130t18 -148.5q0 -210 -124.5 -343.5t-332.5 -133.5q-204 0 -323 130t-119 339zM301 457q0 -156 78 -255.5t219 -99.5q142 0 221.5 99t79.5 258t-80 254.5t-221 95.5 q-139 0 -218 -98t-79 -254zM338 1128l248 246h45l248 -241l-56 -70l-227 172l-207 -172z" />
<glyph unicode="&#xf5;" horiz-adv-x="1050" d="M152 449q0 136 50 243.5t153.5 173.5t246.5 66q87 0 160.5 -24.5t126 -68.5t89.5 -103.5t55 -130t18 -148.5q0 -210 -124.5 -343.5t-332.5 -133.5q-204 0 -323 130t-119 339zM301 457q0 -156 78 -255.5t219 -99.5q142 0 221.5 99t79.5 258t-80 254.5t-221 95.5 q-139 0 -218 -98t-79 -254zM305 1149q6 40 24 79t56 70t86 31q45 0 120.5 -38t125.5 -38q69 0 96 88l74 -18q-31 -190 -158 -190q-45 0 -92 19.5t-88 39.5t-72 20q-33 0 -61.5 -21t-42.5 -67z" />
<glyph unicode="&#xf6;" horiz-adv-x="1050" d="M152 449q0 136 50 243.5t153.5 173.5t246.5 66q87 0 160.5 -24.5t126 -68.5t89.5 -103.5t55 -130t18 -148.5q0 -210 -124.5 -343.5t-332.5 -133.5q-204 0 -323 130t-119 339zM301 457q0 -156 78 -255.5t219 -99.5q142 0 221.5 99t79.5 258t-80 254.5t-221 95.5 q-139 0 -218 -98t-79 -254zM344 1137v174h166v-174h-166zM694 1137v174h166v-174h-166z" />
<glyph unicode="&#xf7;" horiz-adv-x="917" d="M205 520v111h710v-111h-710zM457 176v211h198v-211h-198zM457 766v211h198v-211h-198z" />
<glyph unicode="&#xf8;" horiz-adv-x="1056" d="M156 0l104 125q-104 125 -104 324q0 136 50 243t154 172.5t248 65.5q155 0 269 -80l53 61h127l-109 -127q109 -130 109 -327q0 -212 -125 -344.5t-334 -132.5q-156 0 -268 79l-49 -59h-125zM309 457q0 -129 51 -215l426 501q-75 62 -182 62q-139 0 -217 -96t-78 -252z M422 166q72 -62 182 -62q141 0 219 99t78 256q0 123 -51 211z" />
<glyph unicode="&#xf9;" horiz-adv-x="1150" d="M37 795v116h303v-542q0 -267 219 -267q112 0 189.5 85.5t80.5 189.5v418h-190v116h334v-794h164v-117h-308v172q-44 -88 -127 -140t-190 -52q-142 0 -228.5 86.5t-86.5 261.5v467h-160zM256 1278l82 121l315 -271l-43 -63z" />
<glyph unicode="&#xfa;" horiz-adv-x="1150" d="M37 795v116h303v-542q0 -267 219 -267q112 0 189.5 85.5t80.5 189.5v418h-190v116h334v-794h164v-117h-308v172q-44 -88 -127 -140t-190 -52q-142 0 -228.5 86.5t-86.5 261.5v467h-160zM483 1128l316 271l82 -121l-353 -213z" />
<glyph unicode="&#xfb;" horiz-adv-x="1150" d="M37 795v116h303v-542q0 -267 219 -267q112 0 189.5 85.5t80.5 189.5v418h-190v116h334v-794h164v-117h-308v172q-44 -88 -127 -140t-190 -52q-142 0 -228.5 86.5t-86.5 261.5v467h-160zM299 1128l248 246h45l248 -241l-56 -70l-227 172l-207 -172z" />
<glyph unicode="&#xfc;" horiz-adv-x="1150" d="M37 795v116h303v-542q0 -267 219 -267q112 0 189.5 85.5t80.5 189.5v418h-190v116h334v-794h164v-117h-308v172q-44 -88 -127 -140t-190 -52q-142 0 -228.5 86.5t-86.5 261.5v467h-160zM291 1137v174h166v-174h-166zM641 1137v174h166v-174h-166z" />
<glyph unicode="&#xfd;" horiz-adv-x="1046" d="M33 795v116h422v-116h-160l256 -613h12l228 613h-148v116h401v-116h-108l-322 -795l-122 -319h155v-117h-463v117h170l119 321l-332 793h-108zM449 1128l315 271l82 -121l-352 -213z" />
<glyph unicode="&#xfe;" horiz-adv-x="1073" d="M-57 1292v117h309v-690q103 211 328 211q174 0 281.5 -120t107.5 -329q0 -95 -24.5 -182t-72.5 -159.5t-130.5 -116t-188.5 -43.5q-98 0 -177.5 39.5t-123.5 113.5v-452h213v-117h-516v117h157v1611h-163zM252 375q0 -116 79 -193.5t197 -77.5q139 0 213 104.5t74 260.5 q0 159 -75.5 247.5t-192.5 88.5q-82 0 -150.5 -47.5t-105 -116t-39.5 -137.5v-129z" />
<glyph unicode="&#xff;" horiz-adv-x="1046" d="M33 795v116h422v-116h-160l256 -613h12l228 613h-148v116h401v-116h-108l-322 -795l-122 -319h155v-117h-463v117h170l119 321l-332 793h-108zM309 1137v174h166v-174h-166zM659 1137v174h166v-174h-166z" />
<glyph unicode="&#x152;" horiz-adv-x="2043" d="M160 666q0 190 85 346.5t238 248t344 91.5q188 0 344 -101v80h809l41 -377l-133 -14l-41 260h-526v-459h627v-131h-627v-479h545l41 260l133 -14l-41 -377h-828v78q-151 -98 -344 -98q-195 0 -348.5 93t-236 249t-82.5 344zM319 670q0 -111 35 -211t99 -177t163.5 -122 t219.5 -45q102 0 189 32t146 91v856q-138 123 -337 123q-154 0 -273 -74t-180.5 -197.5t-61.5 -275.5z" />
<glyph unicode="&#x153;" horiz-adv-x="1705" d="M152 449q0 136 50 243.5t153.5 173.5t246.5 66q126 0 220.5 -50.5t150.5 -140.5q55 90 142.5 139.5t199.5 49.5q121 0 210 -56t132.5 -145t44.5 -199q0 -52 -12 -108h-641v-10q9 -149 82.5 -229.5t205.5 -80.5q104 0 166.5 49.5t85.5 137.5l121 -27 q-20 -123 -120.5 -202.5t-262.5 -79.5q-120 0 -212.5 46.5t-147.5 135.5q-60 -86 -155.5 -134t-217.5 -48q-204 0 -323 130t-119 339zM301 457q0 -156 78 -255.5t219 -99.5q131 0 209.5 86.5t89.5 227.5v69q-6 148 -85 236t-214 88q-139 0 -218 -98t-79 -254zM1051 528h499 q7 70 -15 133t-80.5 106.5t-143.5 43.5q-118 0 -181.5 -78t-78.5 -205z" />
<glyph unicode="&#x178;" horiz-adv-x="1255" d="M-16 1200v131h485v-131h-182l336 -553h10l325 553h-184v131h467v-131h-131l-414 -692v-377h234v-131h-613v131h230v379l-432 690h-131zM365 1470v175h165v-175h-165zM717 1470v175h164v-175h-164z" />
<glyph unicode="&#x2c6;" horiz-adv-x="692" d="M238 1128l247 246h45l248 -241l-55 -70l-227 172l-207 -172z" />
<glyph unicode="&#x2dc;" horiz-adv-x="765" d="M143 1149q6 40 24 79t56 70t86 31q45 0 120.5 -38t125.5 -38q69 0 96 88l74 -18q-31 -190 -158 -190q-45 0 -92 19.5t-88 39.5t-72 20q-33 0 -61.5 -21t-42.5 -67z" />
<glyph unicode="&#x2000;" horiz-adv-x="895" />
<glyph unicode="&#x2001;" horiz-adv-x="1790" />
<glyph unicode="&#x2002;" horiz-adv-x="895" />
<glyph unicode="&#x2003;" horiz-adv-x="1790" />
<glyph unicode="&#x2004;" horiz-adv-x="596" />
<glyph unicode="&#x2005;" horiz-adv-x="447" />
<glyph unicode="&#x2006;" horiz-adv-x="298" />
<glyph unicode="&#x2007;" horiz-adv-x="298" />
<glyph unicode="&#x2008;" horiz-adv-x="223" />
<glyph unicode="&#x2009;" horiz-adv-x="358" />
<glyph unicode="&#x200a;" horiz-adv-x="99" />
<glyph unicode="&#x2010;" horiz-adv-x="712" d="M238 410v125h473v-125h-473z" />
<glyph unicode="&#x2011;" horiz-adv-x="712" d="M238 410v125h473v-125h-473z" />
<glyph unicode="&#x2012;" horiz-adv-x="712" d="M238 410v125h473v-125h-473z" />
<glyph unicode="&#x2013;" horiz-adv-x="1275" d="M250 422v104h1028v-104h-1028z" />
<glyph unicode="&#x2014;" horiz-adv-x="2209" d="M303 422v104h1925v-104h-1925z" />
<glyph unicode="&#x2018;" horiz-adv-x="415" d="M184 901l109 442h141l-106 -442h-144z" />
<glyph unicode="&#x2019;" horiz-adv-x="411" d="M180 981l107 442h143l-108 -442h-142z" />
<glyph unicode="&#x201a;" horiz-adv-x="411" d="M98 -209l107 442h143l-108 -442h-142z" />
<glyph unicode="&#x201c;" horiz-adv-x="747" d="M184 926l109 442h141l-106 -442h-144zM520 926l109 442h141l-106 -442h-144z" />
<glyph unicode="&#x201d;" horiz-adv-x="743" d="M164 930l106 442h144l-109 -442h-141zM500 930l106 442h144l-109 -442h-141z" />
<glyph unicode="&#x201e;" horiz-adv-x="751" d="M98 -209l107 442h143l-108 -442h-142zM438 -209l107 442h143l-108 -442h-142z" />
<glyph unicode="&#x2022;" horiz-adv-x="731" d="M283 500q0 94 64 160.5t157 66.5q96 0 162.5 -66.5t66.5 -160.5q0 -95 -66 -160.5t-163 -65.5q-94 0 -157.5 65.5t-63.5 160.5z" />
<glyph unicode="&#x2026;" horiz-adv-x="1198" d="M233 0v221h199v-221h-199zM614 0v221h199v-221h-199zM997 0v221h201v-221h-201z" />
<glyph unicode="&#x202f;" horiz-adv-x="358" />
<glyph unicode="&#x2039;" horiz-adv-x="587" d="M168 555l283 492h122l-264 -492l264 -504h-122z" />
<glyph unicode="&#x203a;" horiz-adv-x="587" d="M197 51l262 504l-262 492h122l283 -492l-283 -504h-122z" />
<glyph unicode="&#x205f;" horiz-adv-x="447" />
<glyph unicode="&#x20ac;" horiz-adv-x="1230" d="M152 354v92h120q-4 54 -4 82q0 53 4 80h-120v94h137q46 170 175 275.5t310 105.5q113 0 208.5 -27t156.5 -75l32 -242l-122 -12l-39 199q-78 41 -217 41q-133 0 -223 -70.5t-126 -194.5h392v-94h-410q-4 -25 -4 -76q0 -32 4 -86h358v-92h-338q38 -120 129.5 -186 t221.5 -66q127 0 219 43l39 197l123 -12l-33 -244q-67 -45 -165 -73.5t-210 -28.5q-179 0 -306.5 101t-172.5 269h-139z" />
<glyph unicode="&#x2122;" horiz-adv-x="2183" d="M213 1053l20 278h781l20 -278l-102 -4l-21 184h-225v-670h154v-98h-426v98h151v670h-227l-23 -184zM1063 1233v98h221l340 -653h6l324 653h223v-98h-115v-670h107v-98h-328v98h98v512h-6l-280 -561h-62l-291 567h-6v-518h103v-98h-326v98h109v670h-117z" />
<glyph unicode="&#x25fc;" horiz-adv-x="911" d="M0 0v911h911v-911h-911z" />
</font>
</defs>
</svg>
